HIERARCHY
ROOT root
{
	OFFSET 0.000000 0.000000 0.000000
	CHANNELS 6 Xposition Yposition Zposition Zrotation Yrotation Xrotation
	JOINT lhip
	{
		OFFSET 0.058581 -0.082280 -0.017664
		CHANNELS 3 Zrotation Yrotation Xrotation
		JOINT lknee
		{
			OFFSET 0.043451 -0.386469 0.008037
			CHANNELS 3 Zrotation Yrotation Xrotation
			JOINT lankle
			{
				OFFSET -0.014790 -0.426874 -0.037428
				CHANNELS 3 Zrotation Yrotation Xrotation
				JOINT ltoe
				{
					OFFSET 0.041054 -0.060286 0.122042
					CHANNELS 3 Zrotation Yrotation Xrotation
					End Site
					{
						OFFSET 0.000000 0.000000 0.000000
					}
				}
			}
		}
	}
	JOINT rhip
	{
		OFFSET -0.060310 -0.090513 -0.013543
		CHANNELS 3 Zrotation Yrotation Xrotation
		JOINT rknee
		{
			OFFSET -0.043257 -0.383688 -0.004843
			CHANNELS 3 Zrotation Yrotation Xrotation
			JOINT rankle
			{
				OFFSET 0.019056 -0.420046 -0.034562
				CHANNELS 3 Zrotation Yrotation Xrotation
				JOINT rtoe
				{
					OFFSET -0.034840 -0.062106 0.130323
					CHANNELS 3 Zrotation Yrotation Xrotation
					End Site
					{
						OFFSET 0.000000 0.000000 0.000000
					}
				}
			}
		}
	}
	JOINT lowerback
	{
		OFFSET 0.004439 0.124404 -0.038385
		CHANNELS 3 Zrotation Yrotation Xrotation
		JOINT upperback
		{
			OFFSET 0.004488 0.137956 0.026820
			CHANNELS 3 Zrotation Yrotation Xrotation
			JOINT chest
			{
				OFFSET -0.002265 0.056032 0.002855
				CHANNELS 3 Zrotation Yrotation Xrotation
				JOINT lowerneck
				{
					OFFSET -0.013390 0.211636 -0.033468
					CHANNELS 3 Zrotation Yrotation Xrotation
					JOINT upperneck
					{
						OFFSET 0.010113 0.088937 0.050410
						CHANNELS 3 Zrotation Yrotation Xrotation
						End Site
						{
							OFFSET 0.000000 0.000000 0.000000
						}
					}
				}
				JOINT lclavicle
				{
					OFFSET 0.071702 0.114000 -0.018898
					CHANNELS 3 Zrotation Yrotation Xrotation
					JOINT lshoulder
					{
						OFFSET 0.122921 0.045205 -0.019046
						CHANNELS 3 Zrotation Yrotation Xrotation
						JOINT lelbow
						{
							OFFSET 0.255332 -0.015649 -0.022946
							CHANNELS 3 Zrotation Yrotation Xrotation
							JOINT lwrist
							{
								OFFSET 0.265709 0.012698 -0.007375
								CHANNELS 3 Zrotation Yrotation Xrotation
								End Site
								{
									OFFSET 0.000000 0.000000 0.000000
								}
							}
						}
					}
				}
				JOINT rclavicle
				{
					OFFSET -0.082954 0.112472 -0.023707
					CHANNELS 3 Zrotation Yrotation Xrotation
					JOINT rshoulder
					{
						OFFSET -0.113228 0.046853 -0.008472
						CHANNELS 3 Zrotation Yrotation Xrotation
						JOINT relbow
						{
							OFFSET -0.260127 -0.014369 -0.031269
							CHANNELS 3 Zrotation Yrotation Xrotation
							JOINT rwrist
							{
								OFFSET -0.269108 0.006794 -0.006027
								CHANNELS 3 Zrotation Yrotation Xrotation
								End Site
								{
									OFFSET 0.000000 0.000000 0.000000
								}
							}
						}
					}
				}
			}
		}
	}
}
MOTION
Frames: 16
Frame Time: 0.033333
0.354221 0.172914 0.999269 86.910888 -0.019081 92.333450 7.260148 5.323220 3.607812 -4.096911 -0.043380 -6.287302 -0.624194 8.494834 -2.406656 0.000000 -0.000000 0.000000 -7.598726 -3.332904 -1.406857 2.341990 -1.666416 0.184297 4.938201 -3.937539 -5.174075 0.000000 -0.000000 0.000000 -4.789203 1.841644 -7.488131 2.533703 -2.505911 11.659820 0.388584 1.044998 -4.292718 3.510175 3.934266 2.983989 5.586485 -1.392688 -0.604313 -27.791665 -2.517084 -0.049505 -55.140553 -7.063099 17.730401 0.735390 -18.211151 9.233840 -5.558875 -15.225480 9.310022 29.913955 4.510156 5.475462 53.776785 4.611978 14.701813 -7.609889 24.224318 -0.082723 -0.371959 12.518016 2.965889 
0.354725 0.172853 0.999172 86.991848 -0.034311 92.326019 7.255257 5.305385 3.647955 -4.088362 -0.067305 -6.292210 -0.641487 8.454400 -2.388050 0.000000 -0.000000 0.000000 -7.607731 -3.301300 -1.285122 2.331717 -1.687860 0.105484 4.929921 -4.022677 -5.167871 0.000000 -0.000000 0.000000 -4.714820 1.763209 -7.485721 2.376840 -2.451210 11.573775 0.399259 1.107538 -4.230137 3.578702 3.942158 2.816637 5.566066 -1.544592 -0.325580 -27.560682 -2.711314 0.015956 -55.346202 -7.040694 17.679097 0.767765 -18.183884 9.125408 -5.699147 -15.197306 9.482720 29.583785 5.053430 5.847261 54.341424 4.382200 14.950307 -8.045867 24.238196 -0.787120 -0.592524 12.689594 2.625889 
0.355038 0.172766 0.999120 87.060124 -0.024762 92.338616 7.256709 5.327485 3.587304 -4.053422 -0.080527 -6.195391 -0.574017 8.366849 -2.400676 0.000000 -0.000000 0.000000 -7.581959 -3.365098 -1.291946 2.312687 -1.653640 0.142140 4.923200 -4.023867 -5.164260 0.000000 -0.000000 0.000000 -4.734278 1.741518 -7.517605 2.442923 -2.521717 11.464491 0.368154 1.014947 -4.146304 3.639227 3.969922 2.800089 5.425857 -1.483573 -0.257863 -27.589649 -2.538958 -0.118294 -55.383096 -7.101179 17.717655 0.704621 -18.449778 9.247124 -5.838901 -14.467995 9.184323 29.742037 4.511738 5.515522 54.177897 4.712468 14.900483 -7.938116 24.316126 -0.395611 0.007028 12.363581 3.024134 
0.355675 0.172498 0.999130 87.105338 -0.042576 92.427054 7.235043 5.326270 3.481604 -4.031857 -0.086464 -6.123117 -0.589068 8.303837 -2.399955 0.000000 -0.000000 0.000000 -7.588315 -3.387816 -1.298723 2.339132 -1.645140 0.054299 4.899513 -4.057917 -5.134880 0.000000 -0.000000 0.000000 -4.649138 1.861332 -7.424621 2.363650 -2.508415 11.275679 0.263802 0.870299 -4.439600 3.734409 3.950192 2.929912 5.366837 -1.533259 -0.066535 -27.523540 -2.377122 -0.172036 -55.437246 -6.997065 17.863554 0.654462 -18.487494 9.339474 -5.795484 -14.225533 9.115121 29.828545 4.226225 5.421833 54.239049 4.656305 15.008958 -7.883579 24.268994 -0.326632 0.166457 12.271885 3.146214 
0.355774 0.172428 0.999169 87.108001 -0.042162 92.433623 7.233786 5.325007 3.474386 -4.026662 -0.088210 -6.107145 -0.589184 8.303008 -2.403909 0.000000 -0.000000 0.000000 -7.583241 -3.386231 -1.298846 2.340787 -1.638105 0.055490 4.897843 -4.069475 -5.139362 0.000000 -0.000000 0.000000 -4.630257 1.895072 -7.399807 2.348655 -2.501100 11.249814 0.250113 0.840000 -4.486570 3.743161 3.942170 2.943263 5.361820 -1.540533 -0.044539 -27.508736 -2.347894 -0.176208 -55.437867 -6.987280 17.878356 0.670868 -18.485560 9.405818 -5.831667 -14.212025 9.171722 29.855356 4.170645 5.395243 54.223020 4.651802 15.016167 -7.853151 24.275264 -0.269856 0.194697 12.261389 3.153556 
0.356186 0.172347 0.999314 87.056375 -0.041729 92.389434 7.233575 5.332020 3.595377 -4.035463 -0.114382 -6.118571 -0.543915 8.347030 -2.415404 0.000000 -0.000000 0.000000 -7.587878 -3.326414 -1.191460 2.363301 -1.647556 0.008361 4.860726 -4.074290 -5.154771 0.000000 -0.000000 0.000000 -4.536504 1.995217 -7.410752 2.228240 -2.449416 11.460212 0.177941 0.849529 -4.834086 3.830545 3.914837 3.220163 5.362323 -1.662052 -0.040228 -27.440742 -2.513774 -0.038505 -55.515820 -6.834141 17.958948 0.840391 -18.485460 9.150759 -5.895535 -14.252072 9.394131 29.730230 4.719847 5.759872 54.570641 4.231130 15.228849 -8.152088 24.291710 -0.919416 -0.245605 12.486149 2.811514 
0.356444 0.172259 0.999251 87.004800 -0.034007 92.348583 7.250553 5.303582 3.672192 -4.042639 -0.108060 -6.099891 -0.481127 8.378643 -2.465224 0.000000 -0.000000 0.000000 -7.597429 -3.319044 -1.152615 2.403003 -1.662901 0.045585 4.829953 -4.035141 -5.187465 0.000000 -0.000000 0.000000 -4.539361 2.030263 -7.406263 2.226702 -2.404642 11.424162 0.168668 0.827915 -4.820531 3.862371 3.896369 3.280507 5.299266 -1.707049 0.024762 -27.469623 -2.501798 -0.024264 -55.536330 -6.851846 17.952553 0.753326 -18.478276 9.076469 -5.769262 -14.336097 9.152945 29.717334 4.692069 5.752680 54.647289 4.204565 15.272235 -8.210347 24.328700 -0.954826 -0.301683 12.477779 2.789230 
0.356659 0.172143 0.999270 86.918305 0.007426 92.320096 7.308420 5.347624 3.732107 -4.060989 -0.092596 -6.054252 -0.449975 8.378193 -2.532886 0.000000 -0.000000 0.000000 -7.546232 -3.313409 -1.129812 2.388208 -1.605980 0.071000 4.857781 -3.984665 -5.209658 0.000000 -0.000000 0.000000 -4.516673 2.048355 -7.474823 2.241352 -2.398099 11.492880 0.154186 0.869318 -4.823671 3.868952 3.895269 3.328494 5.282899 -1.736533 0.033124 -27.511956 -2.515692 -0.000963 -55.541345 -6.834184 17.949871 0.759830 -18.501929 9.048636 -5.700017 -14.302410 9.179134 29.733174 4.706561 5.780224 54.663068 4.192338 15.232218 -8.297568 24.384994 -1.044266 -0.316323 12.454958 2.686576 
0.356884 0.172066 0.999235 86.840569 0.004255 92.302026 7.307806 5.363389 3.785153 -4.062681 -0.091226 -6.049474 -0.439396 8.414460 -2.550120 0.000000 -0.000000 0.000000 -7.545034 -3.271390 -1.115601 2.379224 -1.592041 0.089950 4.856870 -3.962403 -5.232629 0.000000 -0.000000 0.000000 -4.541037 2.048051 -7.529270 2.245365 -2.381264 11.557946 0.153283 0.892248 -4.858309 3.860811 3.915908 3.385753 5.308042 -1.762370 -0.009538 -27.498327 -2.520096 0.037304 -55.577109 -6.803421 17.944635 0.757654 -18.522622 9.021771 -5.693828 -14.271117 9.210889 29.713916 4.746055 5.766131 54.708316 4.116090 15.238439 -8.347516 24.398552 -1.034351 -0.387390 12.448036 2.626060 
0.357027 0.172051 0.999147 86.817752 -0.011274 92.311485 7.279310 5.382324 3.768350 -4.045924 -0.090258 -5.998830 -0.453560 8.408284 -2.584671 0.000000 -0.000000 0.000000 -7.568812 -3.255840 -1.118182 2.386457 -1.595916 0.092554 4.858407 -3.963890 -5.265197 0.000000 -0.000000 0.000000 -4.568546 2.021063 -7.569058 2.237835 -2.387351 11.553511 0.145282 0.900596 -4.833160 3.870897 3.973299 3.392806 5.351825 -1.812519 -0.027993 -27.462424 -2.481433 0.022160 -55.629620 -6.806952 17.944230 0.721753 -18.460701 9.063130 -5.602763 -14.346300 9.266499 29.795362 4.756961 5.770863 54.660660 4.166687 15.176068 -8.423876 24.164241 -1.072558 -0.749617 12.649084 2.840980 
0.357201 0.172002 0.999084 86.745368 -0.010337 92.303339 7.286929 5.393958 3.812298 -4.049911 -0.096282 -6.004620 -0.473622 8.458824 -2.592050 0.000000 -0.000000 0.000000 -7.573799 -3.234412 -1.102740 2.393403 -1.580252 0.077018 4.868975 -3.934330 -5.249828 0.000000 -0.000000 0.000000 -4.589762 2.030487 -7.611409 2.234335 -2.351251 11.558808 0.148727 0.906725 -4.807779 3.866699 4.013872 3.375472 5.370615 -1.837806 -0.061935 -27.435432 -2.450750 0.029860 -55.674786 -6.808881 17.928277 0.717195 -18.433900 9.111176 -5.621171 -14.388310 9.272130 29.801166 4.724959 5.780965 54.701157 4.152116 15.150587 -8.460832 24.141626 -1.044629 -0.896951 12.727160 2.808997 
0.357241 0.171926 0.999047 86.707450 0.023209 92.305560 7.315964 5.355675 3.820712 -4.037524 -0.024225 -5.991746 -0.472823 8.480939 -2.626847 0.000000 -0.000000 0.000000 -7.527859 -3.231979 -1.123431 2.377384 -1.557463 0.101913 4.863701 -3.911109 -5.265224 0.000000 -0.000000 0.000000 -4.559598 2.044980 -7.636563 2.240813 -2.350184 11.548608 0.136888 0.892871 -4.793584 3.848542 4.055518 3.341240 5.341172 -1.853705 -0.091799 -27.442263 -2.429993 0.005977 -55.695699 -6.769709 17.920021 0.739342 -18.420937 9.102131 -5.679094 -14.342184 9.291962 29.786685 4.695024 5.772609 54.739429 4.128698 15.151873 -8.470027 24.137584 -1.011447 -0.849658 12.681098 2.824557 
0.357273 0.171829 0.999058 86.675488 0.044406 92.306399 7.341424 5.347876 3.814053 -4.033175 -0.015896 -5.959288 -0.460872 8.472857 -2.650268 0.000000 -0.000000 0.000000 -7.512694 -3.249598 -1.138034 2.403773 -1.538720 0.119928 4.878976 -3.901958 -5.266685 0.000000 -0.000000 0.000000 -4.541915 2.068665 -7.662409 2.231270 -2.359284 11.538885 0.121283 0.871839 -4.780242 3.835339 4.080832 3.354147 5.358153 -1.837572 -0.140916 -27.449776 -2.418668 -0.003380 -55.692183 -6.734857 17.923477 0.773903 -18.406289 9.079845 -5.650312 -14.330042 9.286397 29.784908 4.669672 5.780723 54.793531 4.086702 15.178972 -8.455234 24.161053 -0.996772 -0.838979 12.671514 2.713581 
0.357316 0.171844 0.999073 86.673900 0.034797 92.300953 7.330518 5.343855 3.820447 -4.038972 -0.039705 -5.957625 -0.463615 8.472277 -2.628442 0.000000 -0.000000 0.000000 -7.511545 -3.247676 -1.130798 2.385883 -1.533154 0.121461 4.866491 -3.896507 -5.275186 0.000000 -0.000000 0.000000 -4.538785 2.070634 -7.674265 2.223358 -2.361561 11.519633 0.109176 0.860829 -4.739494 3.809526 4.138439 3.357574 5.361425 -1.816347 -0.188041 -27.455535 -2.411127 -0.052168 -55.686181 -6.737215 17.927900 0.779558 -18.341386 9.063764 -5.706881 -14.352084 9.338523 29.791042 4.635086 5.744765 54.786080 4.079746 15.197674 -8.435782 24.096767 -0.900803 -0.697495 12.704522 2.819186 
0.357337 0.171879 0.999055 86.674261 0.019607 92.268339 7.319256 5.347130 3.861373 -4.044002 -0.044197 -5.959286 -0.467973 8.473563 -2.646040 0.000000 -0.000000 0.000000 -7.536901 -3.224427 -1.081164 2.393860 -1.552128 0.096177 4.857780 -3.913793 -5.275903 0.000000 -0.000000 0.000000 -4.540991 2.049767 -7.654664 2.197383 -2.349936 11.514114 0.094878 0.854095 -4.728262 3.812417 4.193502 3.395058 5.352407 -1.780331 -0.189045 -27.425608 -2.409271 -0.057265 -55.700921 -6.746396 17.920036 0.809545 -18.332144 9.045234 -5.795561 -14.328909 9.325927 29.761858 4.635409 5.728915 54.871402 4.033254 15.254048 -8.391975 24.161203 -0.819329 -0.537319 12.631085 2.724782 
0.357382 0.171902 0.999081 86.668045 0.004359 92.228454 7.305838 5.353161 3.923334 -4.046033 -0.028791 -5.986017 -0.469126 8.462227 -2.641335 0.000000 -0.000000 0.000000 -7.564621 -3.211461 -1.033598 2.402208 -1.545829 0.089966 4.864953 -3.912960 -5.265324 0.000000 -0.000000 0.000000 -4.562179 2.040585 -7.657023 2.192144 -2.338466 11.534485 0.099871 0.852718 -4.717375 3.815921 4.243239 3.461735 5.328998 -1.709739 -0.185363 -27.402534 -2.426051 -0.062005 -55.718262 -6.762039 17.933549 0.832107 -18.313233 9.003869 -5.823375 -14.341452 9.318113 29.729196 4.652069 5.705038 54.918047 3.986768 15.300590 -8.378434 24.203739 -0.850518 -0.423242 12.539681 2.619192 
